<svg width="20" height="22" viewBox="0 0 20 22" fill="none" xmlns="http://www.w3.org/2000/svg">
<path fill-rule="evenodd" clip-rule="evenodd" d="M7.88453 19.106C8.40253 19.683 9.06753 20 9.75753 20H9.75853C10.4515 20 11.1195 19.683 11.6385 19.105C11.9165 18.798 12.3905 18.773 12.6975 19.05C13.0055 19.327 13.0305 19.802 12.7535 20.109C11.9455 21.006 10.8825 21.5 9.75853 21.5H9.75653C8.63553 21.499 7.57453 21.005 6.76953 20.108C6.49253 19.801 6.51753 19.326 6.82553 19.05C7.13353 18.772 7.60753 18.797 7.88453 19.106ZM9.80733 0C14.2523 0 17.2383 3.462 17.2383 6.695C17.2383 8.358 17.6613 9.063 18.1103 9.811C18.5543 10.549 19.0573 11.387 19.0573 12.971C18.7083 17.018 14.4833 17.348 9.80733 17.348C5.13133 17.348 0.905329 17.018 0.560316 13.035C0.557329 11.387 1.06033 10.549 1.50433 9.811L1.66107 9.54715C2.047 8.88386 2.37633 8.16235 2.37633 6.695C2.37633 3.462 5.36233 0 9.80733 0ZM9.80733 1.5C6.31233 1.5 3.87633 4.238 3.87633 6.695C3.87633 8.774 3.29933 9.735 2.78933 10.583C2.38033 11.264 2.05733 11.802 2.05733 12.971C2.22433 14.857 3.46933 15.848 9.80733 15.848C16.1103 15.848 17.3943 14.813 17.5603 12.906C17.5573 11.802 17.2343 11.264 16.8253 10.583C16.3153 9.735 15.7383 8.774 15.7383 6.695C15.7383 4.238 13.3023 1.5 9.80733 1.5Z" fill="currentColor"/>
</svg>
