<svg width="24" height="24" viewBox="0 0 24 24" fill="none" xmlns="http://www.w3.org/2000/svg">
<path d="M21 17.25H20.75V10C20.75 7.582 19.418 6.25 17 6.25H16.75V4C16.75 3.586 16.414 3.25 16 3.25C15.586 3.25 15.25 3.586 15.25 4V6.25H12.75V4C12.75 3.586 12.414 3.25 12 3.25C11.586 3.25 11.25 3.586 11.25 4V6.25H8.75V4C8.75 3.586 8.414 3.25 8 3.25C7.586 3.25 7.25 3.586 7.25 4V6.25H7C4.582 6.25 3.25 7.582 3.25 10V17.25H3C2.586 17.25 2.25 17.586 2.25 18V19C2.25 20.516 3.483 21.75 5 21.75H19C20.517 21.75 21.75 20.516 21.75 19V18C21.75 17.586 21.414 17.25 21 17.25ZM7 7.75H17C18.577 7.75 19.25 8.423 19.25 10V11.154C18.511 11.451 17.869 12.132 17.405 12.751C16.863 11.927 15.964 11 14.663 11C13.419 11 12.546 11.847 12 12.642C11.454 11.847 10.58 11 9.336 11C8.036 11 7.13599 11.927 6.59399 12.751C6.13099 12.131 5.489 11.451 4.75 11.154V10C4.75 8.423 5.423 7.75 7 7.75ZM4.75 12.924C5.215 13.359 5.70401 14.048 6.00101 14.603C6.14101 14.864 6.42301 15.018 6.71701 14.997C7.01201 14.976 7.26801 14.781 7.36801 14.503C7.37501 14.483 8.12299 12.501 9.33499 12.501C10.545 12.501 11.284 14.481 11.292 14.501C11.398 14.8 11.682 15 11.999 15C12 15 12 15 12.001 15C12.319 14.999 12.602 14.799 12.708 14.499C12.89 13.981 13.639 12.501 14.663 12.501C15.875 12.501 16.623 14.483 16.63 14.503C16.731 14.782 16.986 14.976 17.282 14.998C17.575 15.016 17.858 14.865 17.998 14.604C18.295 14.049 18.785 13.36 19.25 12.925V17.251H4.75V12.924ZM20.25 19C20.25 19.689 19.689 20.25 19 20.25H5C4.311 20.25 3.75 19.689 3.75 19V18.75H20.25V19Z" fill="currentColor"/>
</svg>
