<svg width="24" height="24" viewBox="0 0 24 24" fill="none" xmlns="http://www.w3.org/2000/svg">
<path d="M21.65 9.26501C21.244 9.34801 20.983 9.74402 21.065 10.15C21.188 10.753 21.25 11.376 21.25 12C21.25 17.101 17.101 21.25 12 21.25C6.89902 21.25 2.75002 17.101 2.75002 12C2.75002 6.899 6.89902 2.75 12 2.75C12.947 2.75 13.88 2.89305 14.774 3.17505C15.171 3.29805 15.59 3.08006 15.715 2.68506C15.84 2.29006 15.62 1.86902 15.225 1.74402C14.184 1.41602 13.1 1.24902 11.999 1.24902C6.07102 1.24902 1.24902 6.07102 1.24902 11.999C1.24902 17.927 6.07102 22.749 11.999 22.749C17.927 22.749 22.749 17.927 22.749 11.999C22.749 11.274 22.677 10.551 22.534 9.849C22.452 9.444 22.055 9.18301 21.65 9.26501ZM11.978 17.75C12.392 17.75 12.728 17.414 12.728 17V16.6021C13.283 16.5211 13.798 16.275 14.203 15.87C14.699 15.374 14.973 14.716 14.973 14.017C14.973 12.815 14.158 11.769 12.987 11.473L11.379 11.074C11.131 11.012 10.92 10.873 10.761 10.67C10.611 10.48 10.528 10.236 10.528 9.98499C10.528 9.36598 11.031 8.86304 11.65 8.86304H12.35C12.922 8.86304 13.401 9.29304 13.466 9.86304C13.512 10.275 13.884 10.575 14.295 10.525C14.707 10.479 15.003 10.108 14.957 9.69604C14.822 8.49404 13.892 7.56695 12.728 7.39795V7C12.728 6.586 12.392 6.25 11.978 6.25C11.564 6.25 11.228 6.586 11.228 7V7.40405C9.98302 7.60805 9.02802 8.68203 9.02802 9.98303C9.02802 10.57 9.22502 11.144 9.58002 11.592C9.93602 12.051 10.444 12.383 11.014 12.527L12.622 12.926C13.123 13.053 13.473 13.501 13.473 14.015C13.473 14.313 13.356 14.594 13.143 14.807C12.93 15.02 12.649 15.137 12.351 15.137H11.651C11.079 15.137 10.6 14.707 10.535 14.137C10.489 13.725 10.118 13.423 9.70602 13.475C9.29402 13.521 8.99803 13.892 9.04403 14.304C9.17703 15.491 10.085 16.412 11.228 16.597V17C11.228 17.414 11.563 17.75 11.978 17.75ZM19.47 7.53003C19.539 7.59903 19.622 7.65402 19.714 7.69202C19.806 7.73002 19.903 7.75 20.001 7.75C20.099 7.75 20.196 7.73002 20.288 7.69202C20.38 7.65402 20.463 7.59903 20.532 7.53003L22.532 5.53003C22.825 5.23703 22.825 4.76199 22.532 4.46899C22.239 4.17599 21.764 4.17599 21.471 4.46899L20.751 5.18896V2C20.751 1.586 20.415 1.25 20.001 1.25C19.587 1.25 19.251 1.586 19.251 2V5.18896L18.531 4.46899C18.238 4.17599 17.763 4.17599 17.47 4.46899C17.177 4.76199 17.177 5.23703 17.47 5.53003L19.47 7.53003Z" fill="currentColor"/>
</svg>
