<svg width="24" height="24" viewBox="0 0 24 24" fill="none" xmlns="http://www.w3.org/2000/svg">
<path d="M21 16.25H20.652C20.712 15.833 20.75 15.415 20.75 15C20.75 10.868 17.867 7.404 14.009 6.492C14.158 6.191 14.25 5.857 14.25 5.5C14.25 4.259 13.241 3.25 12 3.25C10.759 3.25 9.75 4.259 9.75 5.5C9.75 5.858 9.842 6.191 9.991 6.492C6.133 7.403 3.25 10.867 3.25 15C3.25 15.415 3.28801 15.833 3.34801 16.25H3C2.586 16.25 2.25 16.586 2.25 17V18C2.25 19.516 3.483 20.75 5 20.75H19C20.517 20.75 21.75 19.516 21.75 18V17C21.75 16.586 21.414 16.25 21 16.25ZM11.25 5.5C11.25 5.086 11.586 4.75 12 4.75C12.414 4.75 12.75 5.086 12.75 5.5C12.75 5.914 12.414 6.25 12 6.25C11.586 6.25 11.25 5.914 11.25 5.5ZM4.75 15C4.75 11.002 8.002 7.75 12 7.75C15.998 7.75 19.25 11.002 19.25 15C19.25 15.415 19.201 15.833 19.129 16.25H4.871C4.799 15.833 4.75 15.415 4.75 15ZM20.25 18C20.25 18.689 19.689 19.25 19 19.25H5C4.311 19.25 3.75 18.689 3.75 18V17.75H19.749C19.75 17.75 19.75 17.75 19.751 17.75H19.752H20.25V18ZM16.707 11.604C16.925 11.956 16.817 12.418 16.465 12.637C16.342 12.713 16.205 12.75 16.07 12.75C15.82 12.75 15.574 12.624 15.432 12.396C14.914 11.561 13.932 10.926 12.869 10.739C12.461 10.667 12.189 10.278 12.261 9.87C12.333 9.462 12.725 9.19102 13.13 9.26202C14.623 9.52502 15.959 10.401 16.707 11.604Z" fill="currentColor"/>
</svg>
