<svg width="415" height="253" viewBox="0 0 415 253" fill="none" xmlns="http://www.w3.org/2000/svg">
<path d="M382.008 191.051C362.558 208.771 337.674 222.645 311.107 232.704C275.983 246.002 237.923 252.624 205.592 252.627C173.144 252.627 142.415 248.448 115.09 240.322C46.1797 219.831 -1.10163 174.259 0.17565 107.407C2.18908 1.84023 152.416 -24.401 212.814 24.0274C277.675 76.0325 304.344 25.5603 369.26 53.101C419.266 74.3154 432.997 144.594 382.008 191.051Z" fill="#F4EAC8"/>
<path d="M305.544 115.266C305.544 115.266 300.144 111.077 299.087 110.322C298.029 109.567 297.988 108.524 298.537 108.2C298.537 108.2 295.082 105.573 294.579 102.032C294.03 98.2401 296.337 98.6188 297.614 99.8924C298.891 101.166 299.965 103.936 301.144 103.524C302.322 103.111 301.809 101.511 300.888 101.171C299.968 100.831 300.685 99.384 301.655 99.6148C302.624 99.8457 302.883 101.835 302.883 102.899C302.883 103.962 303.707 106.328 307.332 105.604C310.958 104.88 322.877 98.1208 322.877 98.2635C322.877 98.4061 326.201 99.7523 327.684 99.1765C329.167 98.6007 332.329 92.6143 332.329 92.6143L341.294 95.4155L331.367 115.26C331.367 115.26 312.038 119.369 305.544 115.266Z" fill="url(#paint0_linear_583_2835)"/>
<path d="M315.925 87.2949L327.956 92.2594C327.956 92.2594 323.366 103.931 322.891 110.862L313.084 105.978C313.084 105.978 313.084 93.6289 315.925 87.2949Z" fill="url(#paint1_linear_583_2835)"/>
<path d="M305.316 114.234C306.124 111.944 308.25 109.477 314.073 108.556C320.369 107.56 328.036 110.45 324.764 114.003L314.875 116.395L305.316 114.234Z" fill="url(#paint2_linear_583_2835)"/>
<path d="M323.745 115.009H323.726C323.69 115.007 323.654 114.998 323.622 114.983C323.59 114.967 323.561 114.946 323.537 114.921C323.513 114.895 323.495 114.865 323.484 114.832C323.472 114.8 323.468 114.766 323.47 114.732C323.525 113.969 323.08 112.719 321.962 111.653C321.061 110.794 319.443 109.801 316.878 109.941C312.324 110.2 309.126 111.028 306.272 114.532C306.251 114.561 306.224 114.586 306.192 114.605C306.161 114.624 306.125 114.637 306.088 114.643C306.051 114.648 306.014 114.646 305.977 114.638C305.941 114.629 305.907 114.613 305.877 114.592C305.847 114.57 305.823 114.543 305.805 114.512C305.786 114.481 305.775 114.447 305.772 114.412C305.768 114.376 305.772 114.341 305.783 114.307C305.795 114.273 305.814 114.242 305.838 114.216C308.821 110.553 312.134 109.684 316.848 109.422C319.622 109.267 321.372 110.351 322.341 111.287C323.583 112.47 324.072 113.881 324.009 114.768C324.004 114.832 323.974 114.892 323.926 114.936C323.877 114.981 323.813 115.007 323.745 115.009Z" fill="#D33332"/>
<path d="M306.898 115.238C308.612 112.294 311.307 110.649 315.801 110.649C320.295 110.649 321.182 114.377 321.182 114.377L318.682 115.24C318.682 115.24 318.88 112.084 315.762 111.9C312.645 111.715 309.132 113.005 308.071 115.549L306.898 115.238Z" fill="url(#paint3_linear_583_2835)"/>
<path d="M290.791 88.9933L302.932 84.4023C302.932 84.4023 311.37 87.9143 313.095 97.3349C313.095 97.3349 309.439 108.846 309.206 108.623C308.972 108.4 302.569 105.824 302.569 105.824C302.569 105.824 302.663 101.584 301.627 100.237C301.616 100.237 299.498 96.5153 290.791 88.9933Z" fill="url(#paint4_linear_583_2835)"/>
<path d="M378.423 102.982C376.44 101.509 375.1 105.112 374.028 104.16C372.957 103.208 375.02 100.01 374.028 97.9892C373.037 95.9686 371.383 98.6584 370.243 97.2655C369.169 95.9686 371.792 93.3204 371.067 87.1213C370.581 82.9375 366.142 75.0161 364.236 76.5127C362.33 78.0093 364.736 84.0632 363.78 87.4066C363.101 89.7825 360.783 87.8864 360.344 86.7919C359.618 84.9762 357.83 82.3072 356.704 84.5482C355.578 86.7893 357.891 90.8822 358.077 90.7733C358.264 90.6643 364.12 93.795 364.442 98.7206C364.763 103.646 362.231 104.051 356.24 104.442L351.444 118.065L361.698 122.041L366.991 117.372C375.814 116.101 380.917 104.832 378.423 102.982ZM365.631 91.3854C365.409 89.549 365.802 85.6791 366.777 85.4561C368.403 85.1085 369.301 92.3451 368.018 93.1803C366.735 94.0155 365.851 93.2218 365.631 91.3854ZM370.762 113.137C368.757 114.454 367.389 114.112 367.131 112.844C368.23 110.647 371.748 107.156 373.347 108.504C374.652 109.601 372.77 111.819 370.762 113.137Z" fill="url(#paint5_linear_583_2835)"/>
<path d="M336.177 112.442C336.35 112.442 355.257 111.026 355.43 110.914C355.603 110.803 364.728 104.43 358.316 92.6307C351.905 80.8316 350.606 77.5064 349.367 64.0291C349.241 62.6622 348.302 62.4573 347.796 62.7997C347.796 62.7997 348.653 58.2113 348.002 57.7678C347.351 57.3242 347.035 57.2335 346.206 59.1114C345.376 60.9892 342.879 66.8667 344.398 75.7789C345.917 84.6911 348.486 87.1915 348.486 87.1915L347.662 87.1319C347.662 87.1319 345.025 82.6135 342.168 78.7773C339.311 74.9411 338.622 74.8555 338.168 74.8867C337.715 74.9178 337.498 75.8723 338.015 76.5285C338.531 77.1847 343.956 83.3839 346.137 88.478C347.208 90.981 348.378 95.1181 347.56 99.3122C346.785 103.338 341.753 107.693 336.177 112.442Z" fill="url(#paint6_linear_583_2835)"/>
<g opacity="0.5">
<path d="M354.866 90.0708C354.825 90.0709 354.785 90.0624 354.748 90.0458C354.711 90.0292 354.678 90.0049 354.652 89.9748C349.584 84.0092 347.733 77.5247 347.071 73.136C346.294 67.9952 346.884 63.9282 347.552 62.6832C347.584 62.6216 347.642 62.5748 347.711 62.5532C347.78 62.5315 347.856 62.5368 347.921 62.5677C347.986 62.5987 348.036 62.6528 348.059 62.7183C348.082 62.7837 348.076 62.855 348.043 62.9166C346.634 65.5467 346.077 79.0239 355.083 89.648C355.116 89.6861 355.137 89.7322 355.143 89.781C355.149 89.8297 355.14 89.8791 355.118 89.9234C355.095 89.9676 355.06 90.005 355.016 90.0311C354.972 90.0572 354.921 90.071 354.869 90.0708H354.866Z" fill="#DD9127"/>
<path d="M352.037 89.2533C351.99 89.2534 351.945 89.2423 351.904 89.2209C351.863 89.1996 351.828 89.1688 351.804 89.1314C341.346 73.2601 346.332 62.011 347.972 58.3148C348.003 58.2564 348.057 58.2114 348.122 58.1888C348.187 58.1662 348.259 58.1677 348.323 58.193C348.387 58.2182 348.438 58.2655 348.467 58.3251C348.496 58.3848 348.499 58.4524 348.477 58.5145C346.865 62.1458 341.962 73.2109 352.268 88.8617C352.294 88.901 352.308 88.9461 352.31 88.9925C352.311 89.0388 352.299 89.0846 352.275 89.1251C352.251 89.1656 352.216 89.1994 352.174 89.2228C352.132 89.2463 352.083 89.2586 352.034 89.2585L352.037 89.2533Z" fill="#DD9127"/>
<path d="M356.08 90.07C356.036 90.07 355.993 90.0598 355.953 90.0404C355.914 90.0209 355.88 89.9929 355.855 89.9585C355.784 89.8625 354.07 87.5178 350.666 79.6301C347.903 73.2287 348.389 68.4587 348.711 65.3021C348.793 64.5006 348.862 63.8081 348.87 63.2115C348.87 63.1427 348.899 63.0767 348.95 63.0281C349.002 62.9795 349.072 62.9521 349.145 62.9521C349.217 62.9521 349.287 62.9795 349.339 63.0281C349.39 63.0767 349.419 63.1427 349.419 63.2115C349.419 63.8288 349.342 64.5318 349.26 65.3462C348.944 68.4587 348.466 73.1457 351.183 79.4278C354.556 87.2402 356.297 89.6291 356.314 89.6524C356.342 89.6913 356.359 89.7368 356.362 89.7841C356.365 89.8313 356.355 89.8784 356.332 89.9203C356.308 89.9623 356.274 89.9974 356.231 90.022C356.188 90.0466 356.139 90.0596 356.089 90.0596L356.08 90.07Z" fill="#DD9127"/>
<path d="M339.652 112.447C339.595 112.447 339.541 112.43 339.495 112.4C339.449 112.37 339.413 112.327 339.394 112.277C339.375 112.227 339.372 112.173 339.386 112.122C339.4 112.071 339.43 112.025 339.473 111.99C350.59 102.956 349.807 98.5025 348.626 91.7587C348.571 91.4475 348.516 91.1319 348.461 90.812C348.449 90.7432 348.467 90.6728 348.51 90.6164C348.553 90.56 348.619 90.5221 348.691 90.5111C348.764 90.5001 348.839 90.5169 348.899 90.5577C348.958 90.5986 348.998 90.6602 349.01 90.729C349.065 91.0489 349.12 91.3645 349.175 91.6757C350.342 98.3417 351.188 103.161 339.836 112.384C339.785 112.426 339.719 112.448 339.652 112.447Z" fill="#DD9127"/>
<path d="M342.385 113.396C342.332 113.396 342.281 113.382 342.237 113.355C342.192 113.328 342.157 113.29 342.135 113.245C342.113 113.2 342.105 113.15 342.113 113.101C342.12 113.052 342.142 113.006 342.176 112.968C342.769 112.307 343.343 111.671 343.898 111.069C349.502 104.93 352.883 101.213 350.233 91.694C350.219 91.6292 350.232 91.5619 350.269 91.5059C350.306 91.4499 350.364 91.4093 350.432 91.3924C350.499 91.3755 350.571 91.3836 350.633 91.4151C350.694 91.4466 350.741 91.499 350.763 91.5617C353.488 101.356 350.035 105.14 344.313 111.407C343.764 112.011 343.187 112.641 342.594 113.303C342.568 113.332 342.536 113.355 342.5 113.371C342.464 113.387 342.425 113.396 342.385 113.396Z" fill="#DD9127"/>
<path d="M346.107 112.701C346.052 112.701 345.998 112.685 345.953 112.656C345.907 112.626 345.872 112.585 345.852 112.537C345.832 112.488 345.828 112.435 345.84 112.385C345.852 112.334 345.88 112.288 345.92 112.252C355.441 103.921 353.768 97.7273 352.293 92.2596L352.142 91.6941C352.133 91.6611 352.131 91.6267 352.136 91.593C352.141 91.5593 352.154 91.5269 352.172 91.4976C352.191 91.4683 352.215 91.4428 352.244 91.4225C352.273 91.4021 352.306 91.3873 352.341 91.379C352.376 91.3706 352.412 91.3689 352.448 91.3738C352.483 91.3788 352.518 91.3903 352.549 91.4077C352.58 91.4252 352.607 91.4483 352.628 91.4756C352.65 91.5029 352.666 91.534 352.674 91.567L352.826 92.1299C354.262 97.4601 356.053 104.092 346.294 112.621C346.245 112.669 346.178 112.698 346.107 112.701Z" fill="#DD9127"/>
<path d="M348.823 112.701C348.764 112.701 348.707 112.684 348.659 112.651C348.612 112.618 348.577 112.571 348.56 112.518C348.543 112.465 348.544 112.408 348.564 112.355C348.583 112.303 348.62 112.258 348.669 112.227C357.539 106.634 356.602 99.9062 354.6 92.3246C354.585 92.2589 354.598 92.1905 354.636 92.1338C354.674 92.0771 354.734 92.0364 354.803 92.0203C354.872 92.0042 354.945 92.0139 355.006 92.0474C355.068 92.081 355.113 92.1356 355.133 92.2001C357.185 99.9814 358.14 106.881 348.974 112.66C348.929 112.687 348.877 112.702 348.823 112.701Z" fill="#DD9127"/>
<path d="M352.037 113.103C351.981 113.103 351.925 113.087 351.879 113.056C351.833 113.025 351.798 112.982 351.778 112.932C351.759 112.881 351.757 112.827 351.772 112.775C351.786 112.724 351.818 112.678 351.861 112.644C359.805 106.346 358.454 100.025 357.259 94.4484L357.094 93.6703C357.08 93.6015 357.095 93.5302 357.137 93.4721C357.178 93.414 357.242 93.3738 357.315 93.3604C357.388 93.3469 357.464 93.3614 357.525 93.4006C357.587 93.4397 357.629 93.5004 357.643 93.5692L357.806 94.3473C359.028 100.054 360.415 106.538 352.221 113.043C352.17 113.084 352.104 113.105 352.037 113.103Z" fill="#DD9127"/>
</g>
<path d="M310.958 117.706C319.301 111.331 331.01 110.794 341.295 110.963C351.579 111.131 363.885 109.837 364.233 100.245C364.233 100.245 368.744 111.178 354.935 115.624C341.127 120.069 339.331 123.047 339.331 123.047L310.958 117.706Z" fill="url(#paint7_linear_583_2835)"/>
<g opacity="0.5">
<path d="M316.864 118.321C316.807 118.321 316.751 118.304 316.705 118.273C316.658 118.241 316.623 118.197 316.605 118.146C316.587 118.094 316.585 118.039 316.602 117.987C316.618 117.936 316.651 117.89 316.697 117.857C320.817 114.869 325.635 111.917 335.166 111.513C344.615 111.111 354.246 112.249 354.342 112.262C354.378 112.267 354.413 112.277 354.445 112.294C354.476 112.311 354.504 112.334 354.526 112.361C354.549 112.388 354.565 112.419 354.575 112.452C354.584 112.485 354.587 112.52 354.582 112.554C354.578 112.588 354.566 112.621 354.548 112.651C354.53 112.681 354.506 112.707 354.478 112.728C354.449 112.749 354.416 112.765 354.381 112.774C354.346 112.783 354.309 112.785 354.273 112.781C354.177 112.781 344.593 111.635 335.194 112.037C325.794 112.439 321.086 115.336 317.034 118.262C316.987 118.299 316.926 118.32 316.864 118.321Z" fill="#DD9127"/>
<path d="M319.886 118.926C319.832 118.926 319.78 118.912 319.735 118.884C319.69 118.857 319.654 118.817 319.632 118.771C319.611 118.725 319.604 118.674 319.613 118.624C319.622 118.574 319.646 118.527 319.682 118.49C325.253 112.742 339.644 112.543 350.277 114.12C350.35 114.13 350.415 114.168 350.458 114.224C350.502 114.28 350.52 114.35 350.509 114.419C350.498 114.488 350.458 114.55 350.398 114.591C350.339 114.632 350.264 114.649 350.192 114.638C339.696 113.082 325.514 113.251 320.089 118.848C320.063 118.874 320.031 118.894 319.996 118.907C319.961 118.92 319.923 118.927 319.886 118.926Z" fill="#DD9127"/>
<path d="M323.49 121.268C323.437 121.268 323.386 121.254 323.342 121.228C323.298 121.201 323.263 121.163 323.24 121.119C323.218 121.074 323.21 121.024 323.217 120.976C323.223 120.927 323.245 120.88 323.278 120.843C327.615 115.886 335.913 114.241 346.681 116.215C346.754 116.228 346.818 116.268 346.86 116.326C346.902 116.384 346.917 116.455 346.904 116.524C346.89 116.593 346.847 116.653 346.786 116.693C346.725 116.732 346.649 116.747 346.577 116.734C336.029 114.799 327.898 116.379 323.701 121.182C323.674 121.21 323.642 121.232 323.605 121.247C323.569 121.262 323.529 121.269 323.49 121.268Z" fill="#DD9127"/>
</g>
<path d="M361.011 91.1071C352.54 86.9182 340.275 85.0714 331.332 82.2883C326.011 80.6361 324.091 78.1227 322.542 76.2526C322.023 75.6249 320.918 76.3875 321.056 77.6584C320.404 77.0289 319.789 76.3656 319.215 75.6716C318.117 74.3488 317.095 76.6521 318.891 78.5248C332.675 92.8994 348.986 91.395 355.732 94.4531C362.478 97.5112 363.626 101.142 363.972 103.5C364.318 105.858 359.852 110.381 355.268 111.72C350.683 113.058 340.02 115.67 336.644 121.636C336.644 121.636 353.639 120.562 353.927 120.539C354.166 120.518 365.123 117.652 368.628 111.549C373.699 105.941 369.21 95.1664 361.011 91.1071Z" fill="url(#paint8_linear_583_2835)"/>
<g opacity="0.5">
<path d="M347.214 121.92C347.141 121.929 347.067 121.911 347.009 121.868C346.95 121.826 346.912 121.764 346.902 121.695C346.892 121.626 346.912 121.557 346.956 121.502C347.001 121.446 347.067 121.41 347.14 121.401C347.274 121.365 360.682 117.796 365.096 110.424C365.806 109.274 366.259 107.999 366.428 106.677C366.597 105.356 366.479 104.015 366.079 102.739C363.681 94.628 355.57 92.929 346.983 91.1316C343.396 90.3794 339.685 89.6038 336.251 88.3355C326.508 84.7405 322.27 80.4556 319.177 77.3275C318.696 76.8425 318.243 76.3808 317.804 75.9528C317.753 75.9036 317.724 75.8373 317.725 75.7685C317.726 75.6997 317.756 75.6339 317.808 75.5858C317.86 75.5376 317.93 75.511 318.003 75.5117C318.076 75.5125 318.145 75.5405 318.196 75.5897C318.647 76.0228 319.103 76.4845 319.586 76.9748C322.643 80.0665 326.832 84.3022 336.46 87.8556C339.855 89.1084 343.544 89.8814 347.112 90.6284C355.864 92.4596 364.143 94.1922 366.615 102.604C367.034 103.946 367.159 105.355 366.981 106.745C366.803 108.134 366.326 109.474 365.579 110.683C361.053 118.242 347.851 121.759 347.291 121.904C347.266 121.913 347.24 121.918 347.214 121.92Z" fill="#DD9127"/>
<path d="M341.295 123.022C341.244 123.022 341.194 123.009 341.151 122.984C341.107 122.959 341.072 122.923 341.049 122.88C341.026 122.838 341.016 122.79 341.02 122.742C341.024 122.694 341.042 122.648 341.072 122.61C344.421 118.242 350.777 115.562 354.985 113.791C356.254 113.256 357.35 112.795 358.149 112.382C361.679 110.567 364.917 107.039 363.684 103.592C363.661 103.527 363.666 103.455 363.698 103.393C363.731 103.332 363.788 103.285 363.857 103.263C363.926 103.241 364.002 103.245 364.067 103.276C364.133 103.307 364.183 103.361 364.206 103.426C365.547 107.177 362.261 110.857 358.413 112.839C357.589 113.262 356.49 113.726 355.207 114.265C351.054 116.016 344.769 118.659 341.517 122.916C341.492 122.949 341.458 122.976 341.419 122.994C341.381 123.013 341.338 123.022 341.295 123.022Z" fill="#DD9127"/>
<path d="M368.604 111.814H368.551C368.48 111.801 368.417 111.762 368.376 111.705C368.336 111.648 368.321 111.578 368.334 111.511C369.463 105.963 368.708 101.333 366.09 97.7639C361.146 90.9941 350.672 89.2667 344.418 88.2318C343.547 88.0891 342.723 87.9517 342.031 87.822C335.81 86.6867 329.845 84.5381 324.404 81.4724C324.344 81.4365 324.302 81.3802 324.285 81.3152C324.268 81.2502 324.278 81.1816 324.314 81.1237C324.349 81.0658 324.407 81.023 324.475 81.0044C324.543 80.9858 324.616 80.9927 324.679 81.0237C330.068 84.0596 335.976 86.187 342.138 87.311C342.824 87.4407 343.605 87.5704 344.511 87.7208C350.851 88.7583 361.465 90.5195 366.541 97.4682C369.244 101.167 370.029 105.929 368.87 111.62C368.855 111.676 368.82 111.725 368.772 111.76C368.724 111.795 368.665 111.814 368.604 111.814Z" fill="#DD9127"/>
</g>
<path d="M333.013 102.382C337.809 105.235 344.305 102.488 345.893 96.5123C347.48 90.5363 346.964 83.4268 337.946 87.5197C328.247 91.9239 329.423 100.237 333.013 102.382Z" fill="url(#paint9_linear_583_2835)"/>
<path d="M337.946 99.8947C339.954 99.8947 341.583 98.3572 341.583 96.4605C341.583 94.5639 339.954 93.0264 337.946 93.0264C335.937 93.0264 334.309 94.5639 334.309 96.4605C334.309 98.3572 335.937 99.8947 337.946 99.8947Z" fill="url(#paint10_linear_583_2835)"/>
<path d="M340.308 109.874C340.075 110.156 339.811 110.533 339.503 110.935C336.814 110.916 334.048 110.966 331.288 111.171C329.807 111.28 328.332 111.43 326.868 111.643C323.621 109.537 324.467 107.438 325.668 106.795C326.97 106.097 326.102 104.253 326.404 103.062C326.706 101.872 328.269 100.915 329.975 101.174C331.947 101.478 332.233 99.5609 334.32 99.33C335.902 99.1563 338.501 99.8929 338.957 102.139C339.424 104.432 341.239 103.488 341.69 105.047C342.14 106.606 341.22 108.764 340.308 109.874Z" fill="url(#paint11_linear_583_2835)"/>
<path d="M331.287 111.559C331.187 111.561 331.089 111.528 331.013 111.466C328.876 109.725 328.148 107.715 329.019 105.954C329.889 104.193 332.153 103.23 334.534 103.594C335.079 103.687 335.59 103.907 336.022 104.234C336.454 104.561 336.792 104.984 337.006 105.466C337.272 105.998 337.397 106.583 337.371 107.17C337.345 107.757 337.168 108.33 336.855 108.838C336.532 109.313 336.07 109.688 335.524 109.919C334.979 110.149 334.374 110.224 333.784 110.135C333.294 110.088 332.828 109.905 332.447 109.609C332.066 109.313 331.786 108.918 331.642 108.472C331.5 108.051 331.489 107.6 331.611 107.173C331.732 106.745 331.982 106.36 332.328 106.063C332.903 105.575 333.68 105.391 334.251 105.606C334.532 105.706 334.767 105.895 334.915 106.142C335.062 106.389 335.113 106.677 335.059 106.955C334.963 107.474 334.474 108.06 333.411 108.078C333.302 108.078 333.198 108.037 333.12 107.966C333.042 107.894 332.997 107.797 332.993 107.694C332.993 107.643 333.002 107.593 333.022 107.545C333.043 107.498 333.072 107.454 333.11 107.418C333.148 107.381 333.193 107.352 333.242 107.332C333.292 107.312 333.346 107.301 333.4 107.3C333.949 107.3 334.21 107.041 334.251 106.818C334.271 106.717 334.251 106.613 334.197 106.524C334.143 106.435 334.057 106.367 333.955 106.333C333.762 106.293 333.561 106.301 333.372 106.355C333.183 106.41 333.012 106.509 332.875 106.644C332.644 106.846 332.479 107.107 332.4 107.395C332.321 107.684 332.332 107.987 332.43 108.27C332.53 108.57 332.723 108.835 332.984 109.031C333.245 109.227 333.562 109.345 333.894 109.37C334.326 109.435 334.768 109.381 335.168 109.214C335.568 109.047 335.908 108.774 336.147 108.428C336.386 108.027 336.521 107.577 336.538 107.116C336.556 106.655 336.456 106.197 336.248 105.78C336.088 105.414 335.834 105.091 335.508 104.842C335.182 104.592 334.796 104.423 334.383 104.351C332.364 104.042 330.458 104.833 329.746 106.273C329.035 107.713 329.694 109.37 331.532 110.867C331.596 110.919 331.642 110.988 331.663 111.066C331.684 111.143 331.68 111.225 331.65 111.3C331.619 111.375 331.566 111.439 331.495 111.484C331.425 111.529 331.342 111.553 331.257 111.551L331.287 111.559Z" fill="#ECB88B"/>
<path d="M308.884 159.873L302.355 176.634C302.355 176.634 321.904 181.422 321.374 172.564C320.803 162.986 308.884 159.873 308.884 159.873Z" fill="url(#paint12_linear_583_2835)"/>
<path d="M295.807 141.186C296.249 137.51 301.342 130.525 311.417 128.909L342.456 139.16C342.456 139.16 328.403 149.937 314.947 146.708C301.49 143.478 295.807 141.186 295.807 141.186Z" fill="#F9CBA2"/>
<path d="M302.385 140.163C302.385 140.163 306.066 137.689 310.527 137.653C314.988 137.616 317.589 135.837 317.589 135.837L339.657 138.599C339.657 138.599 335.249 146.803 324.275 147.322C313.301 147.841 302.385 140.163 302.385 140.163Z" fill="#E5AD83"/>
<path d="M366.98 117.372C366.484 119.007 365.894 120.616 365.214 122.191C364.632 123.543 363.975 124.864 363.244 126.149C357.226 136.724 346.489 143.912 330.038 142.342C313.667 140.786 303.839 129.791 300.419 119.481C300.001 118.233 299.673 116.96 299.438 115.671C299.103 113.907 298.985 112.112 299.087 110.322C312.23 118.034 355.792 122.072 366.98 117.372Z" fill="url(#paint13_linear_583_2835)"/>
<path d="M352.575 141.396C348.656 144.394 339.824 146.389 339.824 146.389C330.587 152.204 315.861 150.899 313.581 151.057C313.414 151.057 313.307 151.086 313.287 151.117C313.18 151.244 312.274 153.693 311.038 157.122C309.854 160.395 308.368 164.563 306.989 168.459C305.316 173.177 303.791 177.496 303.143 179.353L302.808 180.305C299.984 178.617 297.399 176.596 295.117 174.29C290.428 169.564 285.838 162.304 288.673 153.433L288.783 153.262C289.607 151.965 294.856 143.631 295.815 141.196C296.853 138.553 309.931 136.729 319.484 143.463C320.034 143.841 323.126 142.469 325.231 140.436C327.335 138.402 329.148 134.558 331.991 134.286C335.287 133.975 335.097 138.117 329.436 143.935C329.436 143.935 334.759 143.102 338.896 139.266C344.071 134.473 347.755 136.34 345.59 140.169C352.836 135.23 357.055 137.964 352.575 141.396Z" fill="#F9CBA2"/>
<path d="M329.423 144.313C329.342 144.313 329.264 144.291 329.197 144.25C329.13 144.208 329.077 144.149 329.045 144.08C329.013 144.01 329.003 143.934 329.016 143.859C329.03 143.784 329.066 143.715 329.12 143.66C333.095 139.574 334.21 136.49 333.551 135.248C333.307 134.786 332.79 134.589 332.018 134.662C330.236 134.833 328.821 136.654 327.453 138.412C326.862 139.214 326.213 139.977 325.511 140.695C323.588 142.549 320.133 144.404 319.224 143.761C313.137 139.471 306.253 139.139 303.567 139.193C303.512 139.195 303.458 139.187 303.407 139.169C303.356 139.15 303.31 139.123 303.27 139.087C303.231 139.051 303.2 139.009 303.179 138.961C303.157 138.914 303.146 138.863 303.146 138.812C303.145 138.761 303.155 138.71 303.175 138.662C303.194 138.615 303.224 138.571 303.261 138.534C303.299 138.498 303.343 138.468 303.393 138.448C303.443 138.427 303.496 138.416 303.55 138.415C306.297 138.355 313.4 138.703 319.688 143.123C320.215 143.232 322.924 142.085 324.907 140.15C325.58 139.457 326.203 138.723 326.772 137.951C328.247 136.052 329.771 134.091 331.919 133.886C333.035 133.78 333.87 134.146 334.271 134.898C335.166 136.586 333.76 139.733 330.582 143.255C332.373 142.773 335.773 141.577 338.578 138.98C342.033 135.78 344.621 135.609 345.783 136.426C346.821 137.16 346.881 138.661 345.923 140.345C345.871 140.436 345.784 140.504 345.679 140.534C345.575 140.564 345.462 140.554 345.365 140.506C345.269 140.457 345.197 140.374 345.165 140.276C345.133 140.177 345.144 140.07 345.195 139.979C345.942 138.659 345.975 137.538 345.288 137.051C344.346 136.384 342.025 136.879 339.155 139.538C334.974 143.411 329.697 144.272 329.472 144.308L329.423 144.313Z" fill="#C98348"/>
<path d="M313.582 151.054C313.414 151.054 313.307 151.083 313.288 151.114C313.181 151.241 312.274 153.69 311.038 157.119C303.451 154.54 303.575 147.976 303.575 147.976C306.399 150.183 313.29 151.018 313.582 151.054Z" fill="#E5AD83"/>
<path d="M306.989 168.457C305.316 173.175 303.792 177.493 303.144 179.351L295.115 174.287C290.426 169.562 285.836 162.302 288.67 153.431L288.78 153.26C290.45 157.545 295.724 168.2 306.989 168.457Z" fill="#E5AD83"/>
<path d="M20.4309 96.6371C20.5891 96.814 20.7833 96.959 21.0021 97.0633C21.2209 97.1677 21.4598 97.2294 21.7044 97.2446C21.949 97.2599 22.1944 97.2284 22.4258 97.1521C22.6572 97.0758 22.87 96.9563 23.0514 96.8005L81.1388 46.8367C81.2636 46.7294 81.3396 46.5806 81.3508 46.4215C81.3621 46.2625 81.3078 46.1054 81.1992 45.9834C81.1437 45.9209 81.0756 45.8694 80.999 45.8319C80.9223 45.7944 80.8385 45.7716 80.7524 45.7648C80.6663 45.7581 80.5797 45.7675 80.4975 45.7925C80.4153 45.8176 80.3392 45.8578 80.2735 45.9107L20.6397 94.2197C20.2743 94.5152 20.0473 94.9351 20.0082 95.3879C19.9691 95.8406 20.1211 96.2896 20.4309 96.6371Z" fill="url(#paint14_linear_583_2835)"/>
<path d="M25.4851 100.809C25.6383 100.99 25.8286 101.14 26.0447 101.25C26.2608 101.36 26.4981 101.428 26.7426 101.449C26.987 101.47 27.2335 101.445 27.4672 101.374C27.7009 101.303 27.9171 101.189 28.1029 101.037L87.5527 52.5336C87.6803 52.4295 87.7605 52.2829 87.7763 52.1243C87.7922 51.9658 87.7426 51.8076 87.6378 51.6828C87.5841 51.6186 87.5174 51.5651 87.4416 51.5255C87.3658 51.4859 87.2824 51.4609 87.1962 51.4519C87.1101 51.443 87.0229 51.4503 86.9398 51.4735C86.8567 51.4966 86.7793 51.5352 86.7121 51.5868L25.7598 98.4044C25.3887 98.6907 25.1518 99.1035 25.1004 99.5534C25.049 100.003 25.1872 100.454 25.4851 100.809Z" fill="url(#paint15_linear_583_2835)"/>
<path d="M41.6474 138.097C45.1881 133.747 54.6015 127.88 65.7702 122.794L75.7329 122.775C75.7329 122.775 79.8916 130.497 66.8387 139.09C53.7857 147.683 34.9616 145.352 41.6474 138.097Z" fill="url(#paint16_linear_583_2835)"/>
<path d="M72.2226 134.615C67.0998 139.494 59.3372 142.718 59.3372 142.718L59.0625 141.704C58.5708 139.889 57.4694 135.845 56.2305 131.365C54.0056 123.325 51.3302 113.902 50.8934 113.414C43.6116 105.29 34.1213 101.483 32.8659 99.5684C32.3578 98.7902 31.4129 83.9616 31.4925 83.2769C31.6573 81.5598 35.9534 75.161 37.607 73.0081C39.2606 70.8553 42.4304 72.977 41.936 74.4944C41.4416 76.0117 39.4858 80.556 39.4254 80.6987C42.7381 77.8455 47.7071 74.6396 49.4816 74.4995C51.4675 74.3439 51.8466 77.4046 50.3386 78.8C49.1135 79.9361 44.0373 84.5063 43.9494 85.0588C43.8615 85.6113 43.043 94.1033 43.043 94.1033C44.8147 89.3748 48.7866 83.8579 49.9403 82.5843C50.8522 81.578 54.6346 79.1891 57.3128 78.385C60.2959 77.4902 61.488 79.9205 60.3893 80.9347C60.3893 80.9347 62.3615 81.1396 62.2571 82.7944C62.1527 84.4493 59.6174 87.0923 59.1367 87.8704C58.656 88.6486 57.0326 94.7725 57.0326 94.7725C67.347 100.85 68.4018 102.785 69.6433 105.407C70.8849 108.029 70.4949 113.902 70.4949 113.902C70.4949 113.902 74.3761 120.207 75.4557 122.202C75.5713 122.383 75.6636 122.578 75.7303 122.78C77.9855 127.171 75.7166 131.282 72.2226 134.615Z" fill="#F9CBA2"/>
<path d="M43.0428 94.4801C43.0135 94.483 42.9841 94.483 42.9549 94.4801C42.857 94.4596 42.7704 94.4062 42.7112 94.3298C42.6521 94.2534 42.6244 94.1593 42.6335 94.065C42.6664 93.7175 43.4383 85.573 43.529 85.0102C43.5921 84.6082 44.4958 83.607 49.2644 79.2416L50.0362 78.5335C50.4166 78.1416 50.6735 77.657 50.7779 77.1346C50.8822 76.6121 50.8299 76.0725 50.6268 75.5766C50.5444 75.3627 50.3898 75.1802 50.1868 75.0574C49.9838 74.9346 49.7436 74.8783 49.5033 74.8971C47.9624 75.019 43.1856 77.9837 39.6916 80.995C39.6093 81.0534 39.5069 81.0805 39.4044 81.0711C39.302 81.0617 39.207 81.0165 39.1381 80.9443C39.0692 80.8721 39.0315 80.7782 39.0322 80.681C39.033 80.5838 39.0722 80.4904 39.1423 80.4192C42.4632 77.5661 47.5091 74.272 49.4429 74.1189C49.8527 74.0832 50.2637 74.1741 50.6139 74.3781C50.9642 74.5821 51.2348 74.888 51.3849 75.2498C51.6603 75.89 51.7345 76.5916 51.5986 77.2706C51.4627 77.9495 51.1224 78.5771 50.6185 79.0782L49.8439 79.7915C48.4183 81.0884 44.6524 84.5433 44.3503 85.1451C44.2871 85.5964 43.9767 88.7763 43.7102 91.5543C45.6742 87.5106 48.5831 83.4851 49.6379 82.3204C50.6213 81.2363 54.4806 78.8188 57.1972 78.0018C59.12 77.426 60.3698 78.1082 60.8972 78.9382C61.0675 79.1941 61.1717 79.4843 61.2012 79.7853C61.2308 80.0863 61.185 80.3896 61.0675 80.6708C61.8558 80.9302 62.7568 81.5579 62.6772 82.8029C62.592 84.1542 61.1334 85.9751 60.1666 87.1812C59.8671 87.5547 59.6172 87.8763 59.5018 88.0527C59.4757 88.0988 59.44 88.1394 59.3968 88.1722C59.3537 88.2049 59.304 88.2292 59.2507 88.2434C59.1975 88.2576 59.1417 88.2616 59.0868 88.255C59.0319 88.2484 58.9789 88.2315 58.9311 88.2051C58.8832 88.1788 58.8415 88.1436 58.8084 88.1018C58.7753 88.0599 58.7514 88.0121 58.7383 87.9613C58.7252 87.9105 58.723 87.8577 58.732 87.8062C58.7409 87.7546 58.7608 87.7052 58.7904 87.661C58.925 87.4431 59.1832 87.1189 59.5101 86.7117C60.3616 85.6508 61.7844 83.8741 61.8531 82.7588C61.9328 81.4878 60.4165 81.3167 60.3506 81.3089C60.2733 81.3005 60.2001 81.2716 60.1395 81.2256C60.0789 81.1796 60.0333 81.1183 60.008 81.0488C59.9827 80.9794 59.9788 80.9046 59.9966 80.8331C60.0145 80.7616 60.0534 80.6963 60.1089 80.6449C60.2729 80.4678 60.3698 80.2442 60.3842 80.0093C60.3987 79.7745 60.3298 79.5418 60.1885 79.348C59.8232 78.7722 58.9085 78.3105 57.4417 78.754C54.8899 79.5321 51.1597 81.8406 50.2587 82.8366C49.0611 84.1594 45.1468 89.666 43.4356 94.2336C43.4047 94.3077 43.3504 94.3711 43.2802 94.4152C43.21 94.4592 43.1271 94.4819 43.0428 94.4801Z" fill="#C98348"/>
<path d="M32.874 99.9624C32.8019 99.9622 32.7311 99.9447 32.6682 99.9116C32.6052 99.8785 32.5522 99.8308 32.5141 99.7731C32.407 99.6123 32.1268 99.1843 31.5445 91.416C31.2698 87.6887 31.0281 83.6346 31.0665 83.2404C31.0764 83.1372 31.1292 83.0419 31.2134 82.9755C31.2977 82.9091 31.4064 82.8771 31.5156 82.8863C31.6249 82.8956 31.7258 82.9455 31.7961 83.0251C31.8664 83.1046 31.9004 83.2072 31.8906 83.3104C31.8247 84.0886 32.7723 98.4347 33.2256 99.3762C33.2793 99.4624 33.295 99.5651 33.2693 99.6622C33.2436 99.7592 33.1786 99.8428 33.0882 99.895C33.0252 99.9365 32.9508 99.96 32.874 99.9624Z" fill="#C98348"/>
<path d="M72.2226 134.616L59.0625 141.705C58.5708 139.889 57.4693 135.846 56.2305 131.366C62.1801 130.72 70.3108 128.254 75.4583 122.189C75.574 122.371 75.6662 122.565 75.733 122.768C77.9854 127.172 75.7165 131.283 72.2226 134.616Z" fill="#E5AD83"/>
<path d="M175.75 123.475L221.79 124.056C221.79 124.056 239.051 160.802 239.211 187.027C239.37 213.253 238.422 239.925 238.422 239.925L191.083 240.962C191.083 240.962 181.881 158.12 175.75 123.475Z" fill="url(#paint17_linear_583_2835)"/>
<path d="M221.683 85.2525L221.249 84.4744C221.18 84.353 221.063 84.2623 220.924 84.2225C220.784 84.1826 220.633 84.1967 220.505 84.2617C220.376 84.3267 220.28 84.4373 220.238 84.5691C220.196 84.7009 220.211 84.8432 220.28 84.9646L220.714 85.7427C227.6 97.8946 233.039 107.494 229.973 114.409C228.163 118.499 223.32 121.591 215.176 123.863C215.107 123.883 215.042 123.915 214.986 123.957C214.93 124 214.883 124.053 214.849 124.113C214.814 124.173 214.792 124.238 214.785 124.306C214.777 124.374 214.783 124.443 214.804 124.508C214.824 124.573 214.858 124.634 214.903 124.687C214.949 124.74 215.005 124.785 215.068 124.817C215.131 124.85 215.201 124.87 215.273 124.878C215.345 124.885 215.417 124.879 215.486 124.859C223.969 122.494 229.039 119.208 230.984 114.811C234.253 107.44 228.704 97.6481 221.683 85.2525Z" fill="url(#paint18_linear_583_2835)"/>
<path d="M217.107 50.2557C217.107 50.2557 219.813 53.4745 221.118 59.1523L223.823 58.8203C223.823 58.8203 222.469 48.1262 210.042 39.6549C197.616 31.1836 173.836 36.5061 167.145 52.7638C164.178 59.9745 164.027 67.1644 162.75 73.833C156.938 86.6463 144.055 91.3177 132.755 93.914C131.307 94.246 129.901 94.5573 128.541 94.8582C116.543 97.5142 107.863 99.431 100.496 109.147C100.452 109.202 100.42 109.265 100.402 109.333C100.384 109.4 100.381 109.469 100.392 109.538C100.403 109.606 100.428 109.672 100.466 109.73C100.505 109.789 100.555 109.841 100.615 109.881C100.674 109.921 100.741 109.95 100.813 109.965C100.884 109.98 100.958 109.982 101.03 109.97C101.102 109.958 101.171 109.932 101.233 109.895C101.294 109.857 101.347 109.809 101.388 109.752C108.516 100.344 117.021 98.4609 128.791 95.8594C130.164 95.5585 131.562 95.2472 133.015 94.9126C143.429 92.5186 155.152 88.4023 161.747 78.0012C159.424 85.7255 154.254 92.5393 139.38 97.566C127.2 101.68 108.165 104.829 103.946 117.603L106.734 118.695C106.734 118.695 111.222 110.286 129.033 107.975C129.033 107.975 114.892 111.762 111.219 120.684C111.219 120.684 116.658 124.087 118.765 128.837C118.765 128.837 129.302 124.15 132.293 119.784C132.293 119.784 129.708 126.334 120.734 131.275L129.513 140.013L185.274 127.688C185.274 127.688 201.008 113.873 182.634 79.7702C182.634 79.7702 197.714 65.5044 188.403 48.8187C188.403 48.8187 195.495 58.9344 203.843 59.5621L198.154 48.4685C198.154 48.4685 203.694 53.9155 206.724 59.7696C206.724 59.7696 215.11 60.3299 219.42 59.1471C219.412 59.1523 218.709 53.6146 217.107 50.2557Z" fill="url(#paint19_linear_583_2835)"/>
<path d="M218.341 78.2451C226.669 97.024 238.327 118.864 206.884 124.362L202.519 103.127L218.341 78.2451Z" fill="url(#paint20_linear_583_2835)"/>
<path d="M221.79 124.056L221.4 132.75C221.4 132.75 217.242 134.153 207.721 140.827C195.388 140.427 193.492 136.332 175.229 134.13L175.437 129.868L175.751 123.482C185.249 120.139 187.323 110.402 181.154 89.6414C181.154 89.6414 172.064 90.2794 171.424 83.4708C170.62 74.9113 177.102 75.3834 182.623 79.7799C182.623 79.7799 197.698 65.5141 188.392 48.8361C188.609 49.1422 195.607 58.9519 203.826 59.5718L198.14 48.4834C198.31 48.6494 203.727 54.0107 206.707 59.7819C206.707 59.7819 213.575 60.241 218.068 59.4525C221.538 76.95 227.652 103.287 208.103 106.74C208.103 106.74 208.292 110.459 208.671 114.521C208.946 117.431 209.311 120.512 209.77 122.507L221.79 124.056Z" fill="#F9CBA2"/>
<path d="M199.829 238.921H147.45C153.015 220.225 149.098 205.125 146.104 190.418C143.11 175.711 141.294 171.483 141.294 171.483C136.792 175.633 124.86 186.527 114.438 195.455C114.062 195.777 113.683 196.09 113.307 196.391C98.6413 208.144 83.6821 204.536 73.6946 195.354C69.1952 191.204 62.9819 183.15 56.3373 172.835C55.5499 171.612 54.7579 170.359 53.9613 169.076C53.0585 167.617 52.1511 166.121 51.2392 164.589C48.9868 160.807 46.7261 156.808 44.5094 152.694C43.1159 150.1 41.7424 147.462 40.3892 144.78C38.2411 140.498 41.6472 138.089 41.6472 138.089C39.1339 142.41 44.5149 145.712 61.2898 137.326C77.6143 129.166 75.73 122.759 75.73 122.759L80.1249 131.438L86.0883 143.193L88.1731 147.276L90.0959 151.05L94.988 160.688C108.233 149.351 109.95 145.476 123.684 133.166C138.039 120.306 145.695 120.236 154.897 121.418C164.098 122.601 167.634 123.921 175.742 123.475C175.742 123.475 190.674 169.572 197.099 197.841C201.181 215.751 199.829 238.921 199.829 238.921Z" fill="url(#paint21_linear_583_2835)"/>
<path d="M173.6 238.922H147.45C153.015 220.226 149.098 205.125 146.104 190.418C143.11 175.711 141.294 171.483 141.294 171.483C141.294 171.483 151.488 156.613 162.107 176.326C170.04 191.059 174.352 221.341 173.6 238.922Z" fill="url(#paint22_linear_583_2835)"/>
<path d="M113.304 196.4C98.6387 208.152 83.6794 204.544 73.6919 195.362C69.1926 191.212 62.9792 183.158 56.3346 172.843C55.5472 171.62 54.7552 170.368 53.9586 169.085C53.0558 167.625 52.1484 166.129 51.2365 164.597C48.9841 160.816 46.7234 156.816 44.5067 152.702C43.1132 150.109 41.7398 147.471 40.3865 144.789C38.2385 140.506 41.6445 138.097 41.6445 138.097C39.1312 142.418 44.5122 145.72 61.2872 137.334C77.6116 129.174 75.7273 122.768 75.7273 122.768L80.1222 131.446L86.0856 143.201L88.1732 147.276L90.096 151.05L94.9881 160.689C94.9881 160.689 108.373 182.935 113.304 196.4Z" fill="url(#paint23_linear_583_2835)"/>
<path d="M315.331 186.649L314.826 187.461C312.867 190.633 310.563 194.563 307.794 199.079C307.17 200.095 306.523 201.141 305.855 202.217C304.939 203.675 303.979 205.184 302.973 206.746C298.806 213.189 293.807 220.428 287.737 228.113C281.831 235.591 262.331 237.656 251.352 224.879C250.517 223.893 249.756 222.853 249.075 221.766C244.836 215.103 242.647 206.486 242.647 206.486C242.647 206.486 241.933 229.861 243.916 239.671L234.577 238.512C234.577 238.512 234.201 221.748 234.107 211.046C234.014 200.344 235.429 189.733 230.424 175.556C225.419 161.378 214.022 123.034 214.022 123.034C223.211 122.99 239.7 123.553 249.053 132.587C257.222 140.48 268.69 175.283 271.462 183.965C271.736 184.828 271.926 185.433 272.011 185.726L272.074 185.931C272.638 184.94 273.198 183.943 273.752 182.94C274.501 181.593 275.245 180.236 275.983 178.868C278.043 175.064 280.065 171.178 282.048 167.211C284.3 162.716 286.507 158.119 288.668 153.423C288.624 153.682 287.657 159.752 292.447 165.673C295.071 168.913 299.691 172.568 304.77 174.723C309.181 176.596 313.939 177.335 318.029 175.688C322.599 173.849 320.63 164.558 309.739 160.732C309.862 160.385 309.986 160.04 310.104 159.695C314.829 161.119 321.915 165.71 322.602 171.273C323.105 175.408 319.52 179.957 315.331 186.649Z" fill="url(#paint24_linear_583_2835)"/>
<path d="M315.331 186.649L314.826 187.461C312.867 190.633 310.563 194.563 307.794 199.079C307.169 200.096 306.523 201.142 305.855 202.217C304.939 203.675 303.978 205.185 302.973 206.746C298.806 213.189 293.807 220.428 287.736 228.113C281.831 235.591 262.331 237.656 251.352 224.879C250.517 223.893 249.756 222.853 249.075 221.766C254.439 214.462 265.237 199.281 270.896 188.009C271.273 187.258 271.644 186.498 272.008 185.729L272.071 185.934C272.635 184.943 273.195 183.946 273.75 182.943C274.499 181.596 275.242 180.238 275.98 178.871C278.04 175.066 280.062 171.181 282.045 167.214C284.297 162.718 286.504 158.122 288.665 153.426C288.621 153.685 287.654 159.755 292.445 165.676C295.068 168.916 299.688 172.57 304.767 174.726C309.178 176.599 313.936 177.338 318.026 175.691C322.597 173.852 320.627 164.561 309.736 160.735C309.859 160.387 309.983 160.042 310.101 159.698C314.826 161.122 321.913 165.712 322.599 171.276C323.105 175.408 319.52 179.957 315.331 186.649Z" fill="url(#paint25_linear_583_2835)"/>
<path d="M311.107 232.704C275.983 246.002 237.923 252.624 205.592 252.627C173.144 252.627 142.415 248.448 115.09 240.322L132.579 232.704H263.177C269.286 234.688 275.722 234.434 280.696 232.704H311.107Z" fill="url(#paint26_linear_583_2835)"/>
<path opacity="0.1" d="M311.107 232.704C275.983 246.002 237.923 252.624 205.592 252.627C173.144 252.627 142.415 248.448 115.09 240.322L132.579 232.704H263.177C269.286 234.688 275.722 234.434 280.696 232.704H311.107Z" fill="#52BEB8"/>
<path d="M183.453 84.1641C183.373 84.1641 183.294 84.142 183.227 84.1005C183.16 84.0591 183.107 84 183.075 83.9306C183.043 83.8613 183.033 83.7845 183.047 83.7099C183.06 83.6353 183.096 83.5659 183.151 83.5104C192.462 74.0224 193.314 65.1699 192.375 59.4117C191.361 53.1633 188.1 49.0989 188.068 49.0574C188.001 48.9755 187.971 48.872 187.986 48.7696C188 48.6672 188.056 48.5743 188.143 48.5114C188.23 48.4484 188.339 48.4206 188.448 48.4339C188.556 48.4473 188.655 48.5008 188.721 48.5827C188.861 48.7539 192.13 52.8209 193.185 59.2561C194.155 65.1906 193.308 74.2999 183.758 84.037C183.719 84.077 183.672 84.109 183.62 84.1309C183.567 84.1528 183.51 84.1641 183.453 84.1641Z" fill="#654B1E"/>
<path d="M191.064 64.6127C190.942 64.6126 190.822 64.5737 190.726 64.5022C190.629 64.4307 190.561 64.3307 190.531 64.2182C190.502 64.1056 190.513 63.987 190.564 63.8813C190.614 63.7756 190.7 63.6888 190.809 63.6348C194.49 61.801 198.176 61.4509 201.469 62.6207C201.54 62.6427 201.604 62.6779 201.66 62.7242C201.715 62.7705 201.76 62.8268 201.792 62.8898C201.824 62.9529 201.842 63.0213 201.845 63.0911C201.848 63.1609 201.836 63.2305 201.81 63.2958C201.784 63.3612 201.744 63.4209 201.693 63.4713C201.642 63.5218 201.58 63.562 201.512 63.5895C201.445 63.6171 201.371 63.6314 201.297 63.6316C201.224 63.6318 201.15 63.6179 201.082 63.5907C197.305 62.2498 193.688 63.3729 191.32 64.553C191.241 64.5922 191.153 64.6126 191.064 64.6127Z" fill="#654B1E"/>
<path d="M209.279 63.43C209.169 63.4301 209.062 63.3993 208.971 63.3415C208.88 63.2836 208.81 63.2015 208.769 63.1056C208.728 63.0096 208.718 62.9043 208.741 62.8031C208.764 62.702 208.818 62.6095 208.897 62.5377C211.49 60.1722 215.904 60.2241 217.5 61.412C217.614 61.4973 217.688 61.622 217.705 61.7587C217.722 61.8954 217.681 62.0329 217.591 62.1409C217.5 62.2489 217.368 62.3186 217.223 62.3346C217.079 62.3507 216.933 62.3118 216.819 62.2265C215.687 61.3861 211.874 61.2512 209.658 63.2821C209.556 63.3758 209.421 63.4288 209.279 63.43Z" fill="#654B1E"/>
<path d="M182.412 84.1632C182.323 84.1634 182.236 84.1361 182.165 84.0854C182.115 84.0491 177.22 80.5942 173.715 81.3101C173.611 81.3267 173.503 81.3046 173.416 81.2484C173.328 81.1921 173.266 81.1061 173.244 81.0082C173.222 80.9102 173.24 80.808 173.296 80.7227C173.351 80.6373 173.44 80.5755 173.542 80.5501C177.415 79.7719 182.45 83.3124 182.662 83.4655C182.731 83.5146 182.782 83.5831 182.808 83.6613C182.834 83.7395 182.833 83.8234 182.805 83.901C182.777 83.9786 182.724 84.046 182.654 84.0935C182.583 84.141 182.499 84.1663 182.412 84.1658V84.1632Z" fill="#C98348"/>
<path d="M178.973 86.7298C177.05 86.7298 175.951 85.6923 175.572 84.6159C175.092 83.2853 175.592 81.537 177.256 80.9171C177.357 80.8823 177.468 80.8862 177.566 80.9278C177.664 80.9694 177.741 81.0455 177.781 81.1399C177.82 81.2343 177.819 81.3395 177.777 81.4331C177.736 81.5266 177.657 81.6012 177.558 81.6408C176.35 82.0895 175.998 83.3786 176.352 84.3643C176.748 85.464 178.05 86.3978 180.514 85.7234C180.567 85.7067 180.622 85.7003 180.678 85.7044C180.733 85.7086 180.787 85.7234 180.836 85.7478C180.886 85.7721 180.929 85.8057 180.964 85.8464C180.999 85.8871 181.025 85.9341 181.041 85.9845C181.056 86.035 181.061 86.0878 181.054 86.14C181.047 86.1921 181.029 86.2423 181.001 86.2877C180.973 86.3331 180.936 86.3727 180.891 86.4041C180.847 86.4355 180.796 86.4581 180.742 86.4704C180.168 86.6349 179.573 86.7222 178.973 86.7298Z" fill="#C98348"/>
<path d="M196.766 76.3454C197.556 76.2887 198.123 75.3419 198.034 74.2306C197.944 73.1193 197.232 72.2644 196.442 72.3211C195.652 72.3779 195.085 73.3247 195.174 74.436C195.264 75.5473 195.976 76.4021 196.766 76.3454Z" fill="#654B1E"/>
<path d="M196.201 73.41C196.147 73.4136 196.093 73.4071 196.041 73.3908C195.99 73.3746 195.942 73.3489 195.901 73.3153C195.819 73.2475 195.768 73.1514 195.76 73.0482C195.753 72.945 195.789 72.8432 195.861 72.7651C195.932 72.687 196.034 72.6391 196.143 72.6319C196.968 72.5256 197.814 71.776 197.709 70.9693C197.696 70.8661 197.726 70.7621 197.794 70.6801C197.862 70.5982 197.961 70.545 198.07 70.5322C198.18 70.5195 198.29 70.5483 198.377 70.6123C198.463 70.6762 198.52 70.7701 198.533 70.8733C198.704 72.1702 197.476 73.244 196.264 73.4049L196.201 73.41Z" fill="#654B1E"/>
<path d="M215.138 75.0642C215.927 75.0074 216.495 74.0606 216.405 72.9493C216.316 71.8381 215.603 70.9832 214.813 71.0399C214.024 71.0966 213.456 72.0435 213.546 73.1547C213.635 74.266 214.348 75.1209 215.138 75.0642Z" fill="#654B1E"/>
<path d="M214.561 72.1288C214.452 72.136 214.344 72.1019 214.261 72.0341C214.179 71.9662 214.128 71.8701 214.12 71.767C214.113 71.6638 214.149 71.5619 214.22 71.4839C214.292 71.4058 214.394 71.3579 214.503 71.3507C215.327 71.2443 216.173 70.4947 216.069 69.688C216.062 69.637 216.066 69.5851 216.081 69.5355C216.096 69.4859 216.12 69.4395 216.154 69.3989C216.187 69.3583 216.229 69.3244 216.276 69.299C216.324 69.2736 216.376 69.2573 216.43 69.251C216.484 69.2447 216.539 69.2485 216.592 69.2623C216.644 69.276 216.694 69.2993 216.736 69.331C216.779 69.3627 216.815 69.402 216.842 69.4468C216.869 69.4916 216.886 69.541 216.893 69.5921C217.063 70.889 215.836 71.9628 214.624 72.1236L214.561 72.1288Z" fill="#654B1E"/>
<path d="M209.111 85.982C208.561 85.9795 208.01 85.9509 207.463 85.8964C207.354 85.8861 207.253 85.8352 207.184 85.755C207.114 85.6747 207.081 85.5716 207.092 85.4685C207.103 85.3653 207.157 85.2704 207.242 85.2047C207.327 85.1391 207.436 85.108 207.545 85.1183C210.232 85.3777 211.872 85.0379 212.289 84.143C212.839 82.9551 211.303 80.8023 209.501 79.2901C207.249 77.3992 206.826 73.2855 208.595 70.4868C208.622 70.4429 208.659 70.4045 208.703 70.374C208.746 70.3434 208.795 70.3213 208.848 70.3087C208.901 70.2962 208.955 70.2936 209.009 70.301C209.062 70.3084 209.114 70.3257 209.161 70.3519C209.207 70.3782 209.248 70.4128 209.28 70.4539C209.312 70.4949 209.336 70.5416 209.349 70.5912C209.362 70.6408 209.365 70.6924 209.357 70.743C209.349 70.7937 209.331 70.8423 209.303 70.8863C207.718 73.3918 208.067 77.0465 210.048 78.7091C211.561 79.98 213.893 82.6205 213.045 84.4569C212.575 85.4736 211.254 85.982 209.111 85.982Z" fill="#C98348"/>
<path d="M211.657 90.2125C211.657 90.2125 211.542 96.4869 207.507 96.85C204.323 97.1379 200.772 94.1447 198.168 90.5212C197.478 89.5621 196.856 88.5613 196.305 87.5254C201.129 89.437 206.389 90.6379 210.46 90.3422C210.872 90.3267 211.273 90.2826 211.657 90.2125Z" fill="url(#paint27_linear_583_2835)"/>
<path d="M210.46 90.353C209.91 91.2893 208.886 92.7548 208.312 92.8741C207.617 93.0142 202.51 92.454 198.168 90.5397C197.478 89.5806 196.856 88.5799 196.305 87.5439C201.129 89.4478 206.389 90.6357 210.46 90.353Z" fill="url(#paint28_linear_583_2835)"/>
<path d="M208.68 114.503C191.77 117.771 185.552 92.6533 185.552 92.6533C194.976 105.057 201.607 107.36 208.111 106.732C208.111 106.732 208.287 110.444 208.68 114.503Z" fill="#E5AD83"/>
<path d="M50.4016 93.3617C50.3342 93.3616 50.2679 93.346 50.2084 93.3161C50.1489 93.2862 50.0981 93.243 50.0605 93.1902C50.0228 93.1375 49.9994 93.0769 49.9923 93.0136C49.9852 92.9503 49.9946 92.8864 50.0198 92.8274C52.8325 86.1614 53.7637 84.5455 54.2966 84.1694C58.4169 81.254 60.1638 80.5874 60.2353 80.5588C60.2856 80.5399 60.3394 80.5306 60.3935 80.5313C60.4477 80.532 60.5011 80.5428 60.5509 80.563C60.6006 80.5832 60.6456 80.6125 60.6834 80.6492C60.7211 80.6859 60.7509 80.7292 60.7709 80.7767C60.7909 80.8242 60.8008 80.875 60.8001 80.9261C60.7993 80.9773 60.7879 81.0278 60.7665 81.0747C60.745 81.1217 60.714 81.1642 60.6752 81.1999C60.6364 81.2355 60.5905 81.2636 60.5402 81.2825C60.5237 81.2825 58.8069 81.9569 54.791 84.7919C54.0878 85.2873 51.6019 91.1803 50.7861 93.1153C50.7557 93.1881 50.7028 93.2506 50.6342 93.2946C50.5656 93.3385 50.4845 93.3619 50.4016 93.3617Z" fill="#C98348"/>
<path d="M35.7006 95.0016H35.6594C35.6055 94.9968 35.5531 94.9819 35.5052 94.9578C35.4573 94.9338 35.415 94.9011 35.3805 94.8616C35.3461 94.8221 35.3202 94.7765 35.3045 94.7276C35.2887 94.6786 35.2833 94.6272 35.2886 94.5762C35.794 89.7233 37.0328 83.1637 37.4119 82.3855C37.7635 81.6722 38.9831 80.5439 39.1204 80.4168C39.1588 80.3793 39.2047 80.3494 39.2555 80.329C39.3063 80.3085 39.361 80.298 39.4162 80.2979C39.4714 80.2977 39.5261 80.3081 39.577 80.3284C39.6279 80.3486 39.674 80.3783 39.7125 80.4157C39.751 80.4531 39.7811 80.4974 39.8011 80.5461C39.8211 80.5947 39.8305 80.6466 39.8289 80.6987C39.8272 80.7508 39.8144 80.8021 39.7914 80.8495C39.7683 80.8969 39.7353 80.9394 39.6945 80.9745C39.3512 81.2909 38.4035 82.2195 38.159 82.7149C37.8844 83.2804 36.6346 89.5832 36.1072 94.6463C36.0983 94.7426 36.0517 94.8324 35.9766 94.8981C35.9014 94.9638 35.803 95.0007 35.7006 95.0016Z" fill="#C98348"/>
<path d="M141.292 171.877C141.21 171.877 141.131 171.854 141.064 171.812C140.996 171.77 140.943 171.709 140.912 171.639C140.881 171.568 140.872 171.49 140.887 171.415C140.902 171.34 140.941 171.271 140.998 171.216L146.7 165.725C146.737 165.686 146.783 165.655 146.833 165.634C146.883 165.612 146.938 165.6 146.993 165.599C147.048 165.597 147.103 165.607 147.155 165.626C147.206 165.645 147.253 165.673 147.292 165.71C147.332 165.747 147.363 165.79 147.384 165.838C147.406 165.887 147.416 165.938 147.416 165.991C147.415 166.043 147.404 166.094 147.382 166.142C147.36 166.19 147.328 166.233 147.288 166.269L141.585 171.761C141.547 171.797 141.501 171.827 141.451 171.847C141.401 171.867 141.346 171.877 141.292 171.877Z" fill="#52BEB8"/>
<path d="M101.325 172.497C101.25 172.497 101.176 172.478 101.112 172.442C101.048 172.405 100.995 172.352 100.96 172.29L94.6147 160.877C94.5641 160.786 94.554 160.679 94.5868 160.58C94.6195 160.482 94.6923 160.4 94.7892 160.352C94.8861 160.304 94.9991 160.295 95.1034 160.325C95.2077 160.356 95.2948 160.425 95.3454 160.517L101.691 171.929C101.724 171.989 101.74 172.055 101.738 172.122C101.736 172.189 101.716 172.255 101.679 172.312C101.642 172.369 101.59 172.417 101.528 172.45C101.466 172.483 101.396 172.5 101.325 172.5V172.497Z" fill="#52BEB8"/>
<path d="M242.647 206.884C242.538 206.884 242.433 206.843 242.356 206.77C242.279 206.697 242.235 206.598 242.235 206.495C242.235 187.82 237.31 173.728 232.544 160.11C232.026 158.63 231.514 157.16 231.009 155.701C230.98 155.604 230.991 155.5 231.041 155.411C231.091 155.323 231.176 155.255 231.277 155.224C231.379 155.193 231.489 155.2 231.585 155.244C231.681 155.288 231.755 155.365 231.792 155.46C232.295 156.923 232.807 158.392 233.327 159.869C238.112 173.546 243.062 187.687 243.059 206.497C243.059 206.6 243.015 206.698 242.938 206.771C242.861 206.843 242.756 206.884 242.647 206.884Z" fill="#52BEB8"/>
<path d="M266.556 196.557C266.447 196.557 266.342 196.516 266.264 196.443C266.187 196.37 266.144 196.271 266.144 196.167C266.144 195.706 269.503 189.683 270.539 187.844L270.737 187.496C271.069 186.908 271.399 186.324 271.717 185.766C271.769 185.676 271.857 185.608 271.962 185.579C272.067 185.549 272.18 185.56 272.276 185.61C272.372 185.659 272.444 185.742 272.475 185.841C272.506 185.94 272.494 186.047 272.442 186.137C272.124 186.695 271.797 187.276 271.464 187.862L271.269 188.21C268.885 192.464 267.105 195.822 266.973 196.225C266.959 196.318 266.908 196.404 266.831 196.465C266.754 196.526 266.656 196.559 266.556 196.557Z" fill="#52BEB8"/>
<g opacity="0.25">
<path d="M86.1022 143.201C84.2124 149.244 79.6251 155.293 71.2473 160.693C64.9543 164.752 58.2905 165.621 51.2366 164.584C48.9842 160.802 46.7235 156.815 44.5068 152.689C51.6486 154.084 58.6888 153.14 67.4594 148.056C76.1806 143.001 79.1747 137.811 80.1388 131.433L86.1022 143.201Z" fill="#DDF1F3"/>
<path d="M90.0881 151.055C87.8101 158.117 82.9608 164.191 76.3979 168.203C69.5308 172.407 62.9933 173.271 56.346 172.843C55.5585 171.622 54.7666 170.369 53.97 169.084C62.7598 169.637 68.4211 167.746 74.7278 163.448C79.9935 159.858 85.1658 154.736 88.1873 147.281L90.0881 151.055Z" fill="#DDF1F3"/>
<path d="M315.331 186.649L314.826 187.461C312.867 190.633 310.563 194.563 307.794 199.078C292.752 199.117 279.603 192.444 275.98 178.878C278.04 175.074 280.062 171.188 282.045 167.222C286.044 178.09 300.935 187.546 315.331 186.649Z" fill="#DDF1F3"/>
<path d="M305.855 202.217C304.939 203.674 303.979 205.184 302.973 206.745C289.374 210.833 276.428 203.934 270.896 188.016C271.294 187.31 271.69 186.607 272.071 185.941C272.634 184.95 273.193 183.953 273.75 182.95C275.999 192.43 286.058 205.656 305.855 202.217Z" fill="#DDF1F3"/>
</g>
<path d="M339.825 146.778C339.739 146.778 339.655 146.753 339.585 146.706C339.515 146.66 339.463 146.593 339.434 146.517C339.406 146.44 339.404 146.357 339.428 146.28C339.453 146.202 339.502 146.133 339.569 146.083C342.132 144.179 344.297 141.583 345.222 139.977C345.274 139.887 345.363 139.819 345.467 139.79C345.572 139.76 345.685 139.771 345.781 139.82C345.877 139.87 345.949 139.953 345.98 140.052C346.011 140.151 346 140.257 345.947 140.348C344.983 142.024 342.736 144.724 340.08 146.695C340.007 146.749 339.917 146.779 339.825 146.778Z" fill="#C98348"/>
<path d="M321.506 149.309C321.409 149.31 321.314 149.277 321.239 149.218C321.164 149.158 321.114 149.076 321.098 148.984C321.082 148.893 321.101 148.8 321.151 148.721C321.201 148.641 321.279 148.581 321.372 148.552C324.022 147.678 326.926 145.849 329.134 143.657C329.171 143.619 329.216 143.588 329.266 143.566C329.316 143.544 329.37 143.531 329.425 143.53C329.48 143.528 329.535 143.536 329.586 143.555C329.637 143.573 329.684 143.601 329.724 143.637C329.764 143.673 329.796 143.716 329.818 143.763C329.84 143.811 329.851 143.862 329.852 143.914C329.852 143.966 329.842 144.018 329.821 144.066C329.8 144.114 329.769 144.158 329.73 144.194C327.437 146.472 324.413 148.375 321.644 149.288C321.6 149.303 321.553 149.31 321.506 149.309Z" fill="#C98348"/>
<path d="M365.214 122.192C364.632 123.543 363.975 124.864 363.244 126.15C346.467 128.707 318.655 127.034 300.419 119.481C300.001 118.233 299.673 116.96 299.438 115.671C319.174 122.116 335.073 126.967 365.214 122.192Z" fill="url(#paint29_linear_583_2835)"/>
<path d="M364.181 128.912C342.456 128.912 345.038 119.4 333.013 118.425C337.015 116.316 342.415 118.425 347.214 121.659C352.013 124.894 365.252 128.375 369.26 123.924C371.891 120.998 370.76 118.217 369.669 116.661C370.53 116.313 371.349 115.878 372.111 115.364C376.58 119.766 374.493 128.912 364.181 128.912Z" fill="url(#paint30_linear_583_2835)"/>
<g opacity="0.5">
<path d="M362.844 128.009C362.094 128.009 361.363 127.971 360.676 127.906C356.396 127.468 352.257 126.204 348.516 124.191C342.314 120.721 338.213 118.426 333.027 118.685C332.991 118.687 332.954 118.682 332.92 118.67C332.886 118.659 332.855 118.641 332.828 118.618C332.801 118.595 332.78 118.568 332.764 118.537C332.749 118.506 332.74 118.473 332.738 118.438C332.736 118.404 332.742 118.37 332.754 118.338C332.766 118.306 332.785 118.276 332.809 118.251C332.833 118.226 332.862 118.205 332.895 118.191C332.928 118.176 332.963 118.168 332.999 118.166C338.353 117.907 342.509 120.226 348.796 123.745C355.435 127.46 366.988 129.548 370.721 124.508C373.347 120.96 371.897 117.764 370.798 116.156C370.779 116.127 370.765 116.095 370.759 116.062C370.752 116.028 370.753 115.994 370.76 115.961C370.768 115.927 370.782 115.896 370.802 115.867C370.823 115.839 370.849 115.815 370.879 115.797C370.91 115.778 370.944 115.765 370.979 115.759C371.015 115.753 371.051 115.753 371.086 115.761C371.122 115.768 371.155 115.781 371.185 115.801C371.215 115.82 371.24 115.845 371.26 115.873C372.433 117.58 373.982 121.009 371.172 124.806C369.299 127.335 365.917 128.009 362.844 128.009Z" fill="#DD9127"/>
</g>
<path d="M379.731 89.8108C380.239 91.5927 388.85 86.3481 387.147 84.2057C385.079 81.5756 379.201 87.9459 379.731 89.8108Z" fill="url(#paint31_linear_583_2835)"/>
<path d="M355.21 64.2464C353.93 59.8629 355.276 53.7675 359.33 54.2266C362.506 54.5846 355.589 58.413 355.21 64.2464Z" fill="url(#paint32_linear_583_2835)"/>
<g opacity="0.25">
<path d="M305.316 112.029C305.283 112.029 305.251 112.024 305.22 112.013C305.033 111.949 300.641 110.382 298.353 108.382C298.324 108.36 298.299 108.332 298.282 108.301C298.265 108.269 298.254 108.235 298.251 108.2C298.248 108.164 298.253 108.129 298.266 108.095C298.278 108.062 298.297 108.031 298.323 108.005C298.348 107.979 298.379 107.958 298.413 107.943C298.448 107.929 298.485 107.921 298.522 107.921C298.56 107.921 298.597 107.927 298.632 107.941C298.666 107.955 298.698 107.975 298.724 108.001C300.921 109.923 305.368 111.503 305.412 111.518C305.473 111.539 305.524 111.58 305.557 111.633C305.589 111.686 305.6 111.748 305.589 111.808C305.577 111.868 305.544 111.923 305.494 111.962C305.444 112.001 305.381 112.022 305.316 112.021V112.029Z" fill="#654B1E"/>
</g>
<path d="M305.662 93.748C304.119 95.9968 303.558 101.55 305.819 105.736C308.08 109.923 314.364 114.112 320.295 108.488L305.662 93.748Z" fill="url(#paint33_linear_583_2835)"/>
<path d="M305.663 93.7477C307.311 92.2459 310.967 92.7906 316.01 96.938C321.053 101.085 323.63 107.134 318.641 109.767C316.252 111.027 310.736 108.348 307.778 104.579C304.558 100.489 304.382 94.9097 305.663 93.7477Z" fill="url(#paint34_linear_583_2835)"/>
<path d="M311.293 99.0785C313.323 96.9645 319.042 100.054 319.295 103.516C319.493 106.201 316.084 108.019 312.906 105.425C310.925 103.807 310.151 100.274 311.293 99.0785Z" fill="url(#paint35_linear_583_2835)"/>
<path d="M315.757 80.707C314.903 78.9795 312.829 77.8201 311.911 78.4141C311.216 78.8602 311.439 81.1583 311.799 82.1802C312.348 83.7365 314.304 84.6547 315.441 84.1489C316.221 83.7987 316.35 81.9131 315.757 80.707ZM314.958 82.9272C314.422 83.1633 313.505 82.7353 313.244 82.0013C313.076 81.5214 312.969 80.445 313.299 80.2297C313.733 79.9496 314.708 80.4891 315.109 81.3087C315.389 81.8742 315.326 82.7638 314.958 82.9272Z" fill="url(#paint36_linear_583_2835)"/>
<path d="M301.391 72.3419C299.699 71.3044 297.287 71.3666 296.84 72.3419C296.502 73.0707 297.985 74.9045 298.867 75.5893C300.213 76.6268 302.38 76.4271 303.059 75.4285C303.525 74.7308 302.575 73.063 301.391 72.3419ZM301.965 74.6218C301.647 75.0939 300.628 75.1924 299.996 74.6996C299.581 74.3754 298.883 73.5143 299.043 73.1719C299.251 72.718 300.386 72.6895 301.182 73.1719C301.737 73.5169 302.185 74.3002 301.954 74.6218H301.965Z" fill="url(#paint37_linear_583_2835)"/>
<path d="M318.962 49.9599C318.369 49.2284 316.312 49.6512 315.1 50.8625C314.257 51.7081 313.818 53.3084 314.364 53.8012C315.164 54.5145 317.048 54.2681 317.96 53.1139C318.556 52.3591 319.41 50.5097 318.962 49.9599ZM316.806 52.5874C316.38 53.1295 315.493 53.2462 315.117 52.9116C314.859 52.6807 315.067 51.9259 315.463 51.5291C316.032 50.9611 317.001 50.751 317.279 51.1037C317.49 51.3631 317.089 52.232 316.806 52.5874Z" fill="url(#paint38_linear_583_2835)"/>
<path d="M329.052 64.7317C328.654 63.4348 327.052 60.6958 325.517 61.1523C324.525 61.4454 323.959 63.8239 324.385 65.6914C324.811 67.5589 326.165 68.7624 327.665 69.0296C329.164 69.2968 329.447 66.039 329.052 64.7317ZM327.5 67.284C327.109 67.197 326.754 67.0028 326.48 66.7259C326.206 66.449 326.025 66.1017 325.959 65.7277C325.758 64.851 326.025 63.7331 326.489 63.5956C327.211 63.3804 327.964 64.6617 328.151 65.2764C328.338 65.8911 328.209 67.4085 327.5 67.284Z" fill="url(#paint39_linear_583_2835)"/>
<path d="M308.45 84.4492C307.335 84.1172 306.171 86.0963 305.882 87.043C305.594 87.9897 305.8 90.3604 306.887 90.1555C307.975 89.9506 308.961 89.0895 309.272 87.7303C309.582 86.3712 309.167 84.6619 308.45 84.4492ZM308.123 87.7615C308.078 88.0345 307.947 88.2885 307.748 88.4912C307.549 88.6939 307.29 88.8362 307.006 88.9001C306.495 88.9909 306.396 87.8808 306.533 87.4346C306.67 86.9885 307.214 86.0574 307.739 86.213C308.077 86.3219 308.272 87.1234 308.123 87.7615Z" fill="url(#paint40_linear_583_2835)"/>
<path d="M209.238 90.9134C205.51 90.9134 200.805 89.8759 196.091 88.0162C195.957 87.9629 195.85 87.8613 195.795 87.7338C195.74 87.6064 195.741 87.4635 195.797 87.3366C195.854 87.2097 195.961 87.1091 196.096 87.0571C196.231 87.005 196.383 87.0057 196.517 87.0591C201.623 89.0822 206.68 90.0938 210.419 89.837C210.809 89.8136 211.193 89.7695 211.567 89.7125C211.638 89.7014 211.711 89.7037 211.781 89.7192C211.852 89.7347 211.918 89.7632 211.977 89.8029C212.035 89.8427 212.085 89.8929 212.123 89.9508C212.161 90.0088 212.187 90.0732 212.199 90.1404C212.21 90.2077 212.208 90.2765 212.192 90.3429C212.175 90.4093 212.145 90.472 212.103 90.5274C212.061 90.5828 212.008 90.6298 211.946 90.6658C211.885 90.7017 211.817 90.726 211.745 90.737C211.339 90.7993 210.921 90.846 210.496 90.8719C210.07 90.8978 209.661 90.9134 209.238 90.9134Z" fill="#C98348"/>
<defs>
<linearGradient id="paint0_linear_583_2835" x1="319.004" y1="107.451" x2="317.687" y2="95.3801" gradientUnits="userSpaceOnUse">
<stop stop-color="#C98348"/>
<stop offset="1" stop-color="#DD9127"/>
</linearGradient>
<linearGradient id="paint1_linear_583_2835" x1="317.315" y1="102.738" x2="327.563" y2="82.6505" gradientUnits="userSpaceOnUse">
<stop stop-color="#51823B"/>
<stop offset="1" stop-color="#AAC76F"/>
</linearGradient>
<linearGradient id="paint2_linear_583_2835" x1="315.702" y1="115.476" x2="317.986" y2="136.847" gradientUnits="userSpaceOnUse">
<stop stop-color="#E94E4E"/>
<stop offset="1" stop-color="#D33332"/>
</linearGradient>
<linearGradient id="paint3_linear_583_2835" x1="313.733" y1="107.584" x2="313.975" y2="113.851" gradientUnits="userSpaceOnUse">
<stop stop-color="#E94E4E"/>
<stop offset="1" stop-color="#D33332"/>
</linearGradient>
<linearGradient id="paint4_linear_583_2835" x1="305.143" y1="96.6527" x2="295.339" y2="83.8417" gradientUnits="userSpaceOnUse">
<stop stop-color="#51823B"/>
<stop offset="1" stop-color="#AAC76F"/>
</linearGradient>
<linearGradient id="paint5_linear_583_2835" x1="361.154" y1="100.347" x2="369.435" y2="94.8109" gradientUnits="userSpaceOnUse">
<stop stop-color="#C98348"/>
<stop offset="1" stop-color="#DD9127"/>
</linearGradient>
<linearGradient id="paint6_linear_583_2835" x1="336.133" y1="105.823" x2="348.662" y2="86.2438" gradientUnits="userSpaceOnUse">
<stop stop-color="#ECDE74"/>
<stop offset="1" stop-color="#F3CE63"/>
</linearGradient>
<linearGradient id="paint7_linear_583_2835" x1="337.02" y1="87.2659" x2="337.773" y2="108.738" gradientUnits="userSpaceOnUse">
<stop stop-color="#ECDE74"/>
<stop offset="1" stop-color="#F3CE63"/>
</linearGradient>
<linearGradient id="paint8_linear_583_2835" x1="313.395" y1="102.953" x2="236.749" y2="121.939" gradientUnits="userSpaceOnUse">
<stop stop-color="#ECDE74"/>
<stop offset="1" stop-color="#F3CE63"/>
</linearGradient>
<linearGradient id="paint9_linear_583_2835" x1="337.355" y1="92.5257" x2="344.335" y2="104.36" gradientUnits="userSpaceOnUse">
<stop stop-color="#FFF1E0"/>
<stop offset="1" stop-color="#ECDE74"/>
</linearGradient>
<linearGradient id="paint10_linear_583_2835" x1="337.468" y1="95.1118" x2="341.524" y2="107.884" gradientUnits="userSpaceOnUse">
<stop stop-color="#F3CE63"/>
<stop offset="1" stop-color="#D2A651"/>
</linearGradient>
<linearGradient id="paint11_linear_583_2835" x1="334.194" y1="109.394" x2="332.827" y2="105.945" gradientUnits="userSpaceOnUse">
<stop stop-color="#F9CBA2"/>
<stop offset="1" stop-color="#FCD7BA"/>
</linearGradient>
<linearGradient id="paint12_linear_583_2835" x1="321.152" y1="163.076" x2="310.669" y2="171.673" gradientUnits="userSpaceOnUse">
<stop stop-color="#45A5A5"/>
<stop offset="1" stop-color="#308B85"/>
</linearGradient>
<linearGradient id="paint13_linear_583_2835" x1="333.337" y1="119.564" x2="345.221" y2="136.293" gradientUnits="userSpaceOnUse">
<stop stop-color="white"/>
<stop offset="1" stop-color="#DDF1F3"/>
</linearGradient>
<linearGradient id="paint14_linear_583_2835" x1="47.7812" y1="34.8846" x2="49.9354" y2="64.991" gradientUnits="userSpaceOnUse">
<stop stop-color="#E8E8EB"/>
<stop offset="1" stop-color="#D3D3D3"/>
</linearGradient>
<linearGradient id="paint15_linear_583_2835" x1="53.1101" y1="34.5043" x2="55.2618" y2="64.6106" gradientUnits="userSpaceOnUse">
<stop stop-color="#E8E8EB"/>
<stop offset="1" stop-color="#D3D3D3"/>
</linearGradient>
<linearGradient id="paint16_linear_583_2835" x1="57.3813" y1="129.141" x2="59.3929" y2="138.564" gradientUnits="userSpaceOnUse">
<stop stop-color="#45A5A5"/>
<stop offset="1" stop-color="#308B85"/>
</linearGradient>
<linearGradient id="paint17_linear_583_2835" x1="251.006" y1="134.519" x2="183.966" y2="215.288" gradientUnits="userSpaceOnUse">
<stop stop-color="#F3CE63"/>
<stop offset="1" stop-color="#D2A651"/>
</linearGradient>
<linearGradient id="paint18_linear_583_2835" x1="182.629" y1="48.4417" x2="209.435" y2="96.0648" gradientUnits="userSpaceOnUse">
<stop offset="0.04" stop-color="#654B1E"/>
<stop offset="1" stop-color="#2E1D12"/>
</linearGradient>
<linearGradient id="paint19_linear_583_2835" x1="151.002" y1="66.2488" x2="177.808" y2="113.869" gradientUnits="userSpaceOnUse">
<stop offset="0.04" stop-color="#654B1E"/>
<stop offset="1" stop-color="#2E1D12"/>
</linearGradient>
<linearGradient id="paint20_linear_583_2835" x1="212.476" y1="94.9283" x2="218.406" y2="121.333" gradientUnits="userSpaceOnUse">
<stop offset="0.04" stop-color="#654B1E"/>
<stop offset="1" stop-color="#2E1D12"/>
</linearGradient>
<linearGradient id="paint21_linear_583_2835" x1="106.536" y1="149.382" x2="175.689" y2="194.275" gradientUnits="userSpaceOnUse">
<stop stop-color="#52BEB8"/>
<stop offset="1" stop-color="#308B85"/>
</linearGradient>
<linearGradient id="paint22_linear_583_2835" x1="65.0502" y1="230.313" x2="151.159" y2="202.438" gradientUnits="userSpaceOnUse">
<stop stop-color="#52BEB8"/>
<stop offset="1" stop-color="#308B85"/>
</linearGradient>
<linearGradient id="paint23_linear_583_2835" x1="66.0612" y1="179.812" x2="110.985" y2="124.102" gradientUnits="userSpaceOnUse">
<stop stop-color="#52BEB8"/>
<stop offset="1" stop-color="#308B85"/>
</linearGradient>
<linearGradient id="paint24_linear_583_2835" x1="276.521" y1="147.826" x2="231.491" y2="202.515" gradientUnits="userSpaceOnUse">
<stop stop-color="#52BEB8"/>
<stop offset="1" stop-color="#308B85"/>
</linearGradient>
<linearGradient id="paint25_linear_583_2835" x1="295.029" y1="200.92" x2="266.488" y2="183.068" gradientUnits="userSpaceOnUse">
<stop stop-color="#52BEB8"/>
<stop offset="1" stop-color="#308B85"/>
</linearGradient>
<linearGradient id="paint26_linear_583_2835" x1="213.097" y1="233.197" x2="213.097" y2="251.548" gradientUnits="userSpaceOnUse">
<stop stop-color="white"/>
<stop offset="1" stop-color="#DDF1F3"/>
</linearGradient>
<linearGradient id="paint27_linear_583_2835" x1="207.35" y1="100.603" x2="205.245" y2="92.3925" gradientUnits="userSpaceOnUse">
<stop stop-color="#E94E4E"/>
<stop offset="1" stop-color="#D33332"/>
</linearGradient>
<linearGradient id="paint28_linear_583_2835" x1="210.539" y1="86.9059" x2="188.558" y2="96.7986" gradientUnits="userSpaceOnUse">
<stop stop-color="white"/>
<stop offset="1" stop-color="#DDF1F3"/>
</linearGradient>
<linearGradient id="paint29_linear_583_2835" x1="332.326" y1="112.076" x2="332.326" y2="131.234" gradientUnits="userSpaceOnUse">
<stop stop-color="#E8E8EB"/>
<stop offset="1" stop-color="#D3D3D3"/>
</linearGradient>
<linearGradient id="paint30_linear_583_2835" x1="385.258" y1="147.148" x2="411.045" y2="173.909" gradientUnits="userSpaceOnUse">
<stop stop-color="#ECDE74"/>
<stop offset="1" stop-color="#F3CE63"/>
</linearGradient>
<linearGradient id="paint31_linear_583_2835" x1="383.692" y1="91.7094" x2="383.481" y2="84.76" gradientUnits="userSpaceOnUse">
<stop stop-color="#C98348"/>
<stop offset="1" stop-color="#DD9127"/>
</linearGradient>
<linearGradient id="paint32_linear_583_2835" x1="357.74" y1="63.3593" x2="357.399" y2="56.2089" gradientUnits="userSpaceOnUse">
<stop stop-color="#C98348"/>
<stop offset="1" stop-color="#DD9127"/>
</linearGradient>
<linearGradient id="paint33_linear_583_2835" x1="312.631" y1="96.8061" x2="311.845" y2="115.369" gradientUnits="userSpaceOnUse">
<stop stop-color="#FFF1E0"/>
<stop offset="1" stop-color="#ECDE74"/>
</linearGradient>
<linearGradient id="paint34_linear_583_2835" x1="317.389" y1="127.29" x2="322.012" y2="158.908" gradientUnits="userSpaceOnUse">
<stop stop-color="#FFF1E0"/>
<stop offset="1" stop-color="#ECDE74"/>
</linearGradient>
<linearGradient id="paint35_linear_583_2835" x1="315.035" y1="102.365" x2="314.807" y2="113.983" gradientUnits="userSpaceOnUse">
<stop stop-color="#F3CE63"/>
<stop offset="1" stop-color="#D2A651"/>
</linearGradient>
<linearGradient id="paint36_linear_583_2835" x1="302.495" y1="50.3728" x2="307.193" y2="64.8714" gradientUnits="userSpaceOnUse">
<stop stop-color="#DBE8C4"/>
<stop offset="1" stop-color="#AAC76F"/>
</linearGradient>
<linearGradient id="paint37_linear_583_2835" x1="291.86" y1="48.7048" x2="295.65" y2="61.7981" gradientUnits="userSpaceOnUse">
<stop stop-color="#DBE8C4"/>
<stop offset="1" stop-color="#AAC76F"/>
</linearGradient>
<linearGradient id="paint38_linear_583_2835" x1="333.276" y1="34.8096" x2="323.712" y2="45.8171" gradientUnits="userSpaceOnUse">
<stop stop-color="#DBE8C4"/>
<stop offset="1" stop-color="#AAC76F"/>
</linearGradient>
<linearGradient id="paint39_linear_583_2835" x1="342.921" y1="33.8996" x2="336.634" y2="47.5238" gradientUnits="userSpaceOnUse">
<stop stop-color="#DBE8C4"/>
<stop offset="1" stop-color="#AAC76F"/>
</linearGradient>
<linearGradient id="paint40_linear_583_2835" x1="298.652" y1="62.1428" x2="302.547" y2="74.5143" gradientUnits="userSpaceOnUse">
<stop stop-color="#DBE8C4"/>
<stop offset="1" stop-color="#AAC76F"/>
</linearGradient>
</defs>
</svg>
