<svg width="24" height="24" viewBox="0 0 24 24" fill="none" xmlns="http://www.w3.org/2000/svg">
<path d="M7.75 13.0002C7.75 14.7922 9.208 16.2502 11 16.2502C12.485 16.2502 13.778 15.2491 14.144 13.8151C14.246 13.4131 14.661 13.1711 15.055 13.2731C15.457 13.3761 15.7 13.7842 15.597 14.1852C15.063 16.2842 13.172 17.7502 11 17.7502C8.381 17.7502 6.25 15.6192 6.25 13.0002C6.25 10.8272 7.716 8.93725 9.815 8.40325C10.212 8.30325 10.625 8.54324 10.726 8.94524C10.829 9.34624 10.585 9.7551 10.184 9.8571C8.75102 10.2211 7.75 11.5142 7.75 13.0002ZM18.885 11.7153C18.474 11.7623 18.178 12.1331 18.225 12.5451C18.243 12.6971 18.25 12.8482 18.25 13.0002C18.25 16.9982 14.998 20.2502 11 20.2502C7.002 20.2502 3.75 16.9982 3.75 13.0002C3.75 9.00217 7.002 5.75017 11 5.75017C11.152 5.75017 11.305 5.75807 11.457 5.77507C11.879 5.82007 12.24 5.52423 12.285 5.11223C12.331 4.70023 12.035 4.32913 11.623 4.28313C11.416 4.26013 11.207 4.24919 11 4.24919C6.175 4.24919 2.25 8.17419 2.25 12.9992C2.25 17.8242 6.175 21.7492 11 21.7492C15.825 21.7492 19.75 17.8242 19.75 12.9992C19.75 12.7912 19.738 12.5822 19.715 12.3742C19.668 11.9632 19.305 11.6693 18.885 11.7153ZM21.53 7.5302L18.969 10.0912C18.55 10.5102 17.97 10.7502 17.378 10.7502H14.31L11.53 13.5302C11.384 13.6762 11.192 13.7502 11 13.7502C10.808 13.7502 10.616 13.6772 10.47 13.5302C10.177 13.2372 10.177 12.7622 10.47 12.4692L13.25 9.68913V6.62126C13.25 6.02926 13.49 5.4492 13.909 5.0302L16.47 2.46916C16.685 2.25416 17.007 2.19008 17.287 2.30608C17.567 2.42208 17.75 2.69619 17.75 2.99919V6.24919H21C21.304 6.24919 21.577 6.43208 21.693 6.71208C21.809 6.99308 21.745 7.3162 21.53 7.5302ZM14.75 6.62126V8.18913L16.25 6.68913V4.81023L14.97 6.09026C14.83 6.23026 14.75 6.42426 14.75 6.62126ZM19.189 7.75017H17.31L15.81 9.25017H17.378C17.575 9.25017 17.769 9.1702 17.908 9.0302L19.189 7.75017Z" fill="currentColor"/>
</svg>
